<svg width="75" height="75" viewBox="0 0 75 75" fill="none" xmlns="http://www.w3.org/2000/svg">
<circle cx="37.5" cy="37.5" r="37.5" fill="#E2E2E2"/>
<path d="M53.5938 54.25V59H23.8125V54.8438L38.7188 38.25C40.5521 36.2083 41.9688 34.4792 42.9688 33.0625C43.9896 31.625 44.6979 30.3438 45.0938 29.2188C45.5104 28.0729 45.7188 26.9062 45.7188 25.7188C45.7188 24.2188 45.4062 22.8646 44.7812 21.6562C44.1771 20.4271 43.2812 19.4479 42.0938 18.7188C40.9062 17.9896 39.4688 17.625 37.7812 17.625C35.7604 17.625 34.0729 18.0208 32.7188 18.8125C31.3854 19.5833 30.3854 20.6667 29.7188 22.0625C29.0521 23.4583 28.7188 25.0625 28.7188 26.875H22.9375C22.9375 24.3125 23.5 21.9688 24.625 19.8438C25.75 17.7188 27.4167 16.0312 29.625 14.7812C31.8333 13.5104 34.5521 12.875 37.7812 12.875C40.6562 12.875 43.1146 13.3854 45.1562 14.4062C47.1979 15.4062 48.7604 16.8229 49.8438 18.6562C50.9479 20.4688 51.5 22.5938 51.5 25.0312C51.5 26.3646 51.2708 27.7188 50.8125 29.0938C50.375 30.4479 49.7604 31.8021 48.9688 33.1562C48.1979 34.5104 47.2917 35.8438 46.25 37.1562C45.2292 38.4688 44.1354 39.7604 42.9688 41.0312L30.7812 54.25H53.5938Z" fill="black"/>
</svg>
