<svg width="4661" height="321" viewBox="0 0 4661 321" fill="none" xmlns="http://www.w3.org/2000/svg">
<g clip-path="url(#clip0_6_1167)">
<path d="M-68.283 300.359L-120.115 554.839L91.5324 386.491L-68.283 300.359Z" fill="#CCCCCC"/>
<path d="M91.5325 386.491L311.819 550.924L363.651 292.529L91.5325 386.491Z" fill="#B3B3B3"/>
<path d="M-68.2823 300.359L91.533 386.491L78.575 229.888L-68.2823 300.359Z" fill="#E6E6E6"/>
<path d="M78.5747 229.888L91.5327 386.491L363.651 292.529L78.5747 229.888Z" fill="#CCCCCC"/>
<path d="M363.651 292.529L311.819 550.924L523.466 378.66L363.651 292.529Z" fill="#CCCCCC"/>
<path d="M523.465 378.661L748.07 543.094L799.902 288.614L523.465 378.661Z" fill="#B3B3B3"/>
<path d="M363.65 292.529L523.466 378.661L510.508 225.973L363.65 292.529Z" fill="#E6E6E6"/>
<path d="M510.508 225.973L523.466 378.661L799.903 288.614L510.508 225.973Z" fill="#CCCCCC"/>
<path d="M799.903 288.614L748.071 543.094L959.719 374.746L799.903 288.614Z" fill="#CCCCCC"/>
<path d="M959.719 374.746L1180.01 539.179L1236.16 280.784L959.719 374.746Z" fill="#B3B3B3"/>
<path d="M799.903 288.614L959.718 374.745L946.76 218.142L799.903 288.614Z" fill="#E6E6E6"/>
<path d="M946.761 218.142L959.719 374.745L1236.16 280.783L946.761 218.142Z" fill="#CCCCCC"/>
<path d="M-146.031 69.3696L74.2554 233.803L126.087 -20.6773L-146.031 69.3696Z" fill="#B3B3B3"/>
<path d="M-146.031 69.3691L-72.6019 300.359L74.2555 233.803L-146.031 69.3691Z" fill="#CCCCCC"/>
<path d="M-158.989 -87.2338L-146.031 69.3695L126.087 -20.6774L-158.989 -87.2338Z" fill="#CCCCCC"/>
<path d="M126.087 -20.6773L74.2554 233.803L285.903 61.5394L126.087 -20.6773Z" fill="#CCCCCC"/>
<path d="M285.902 61.5392L510.507 225.973L562.339 -28.5077L285.902 61.5392Z" fill="#B3B3B3"/>
<path d="M74.2554 233.803L363.651 296.444L285.903 61.5396L74.2554 233.803Z" fill="#B3B3B3"/>
<path d="M285.902 61.5396L363.65 296.444L510.508 225.973L285.902 61.5396Z" fill="#CCCCCC"/>
<path d="M126.087 -20.6774L285.903 61.5393L272.945 -91.1489L126.087 -20.6774Z" fill="#E6E6E6"/>
<path d="M272.944 -91.1489L285.902 61.5393L562.34 -28.5076L272.944 -91.1489Z" fill="#CCCCCC"/>
<path d="M562.34 -28.5077L510.508 225.973L722.155 57.6242L562.34 -28.5077Z" fill="#CCCCCC"/>
<path d="M722.155 57.6242L942.441 222.058L998.592 -32.4226L722.155 57.6242Z" fill="#B3B3B3"/>
<path d="M510.508 225.973L795.584 288.614L722.155 57.6241L510.508 225.973Z" fill="#B3B3B3"/>
<path d="M722.155 57.6241L795.584 288.614L942.441 222.058L722.155 57.6241Z" fill="#CCCCCC"/>
<path d="M562.34 -28.5077L722.156 57.6241L709.198 -98.9792L562.34 -28.5077Z" fill="#E6E6E6"/>
<path d="M709.197 -98.9792L722.155 57.6241L998.593 -32.4228L709.197 -98.9792Z" fill="#CCCCCC"/>
<path d="M994.273 -32.4226L942.441 222.058L1154.09 49.7941L994.273 -32.4226Z" fill="#CCCCCC"/>
<path d="M1154.09 49.7939L1378.69 214.227L1430.53 -40.253L1154.09 49.7939Z" fill="#B3B3B3"/>
<path d="M942.441 222.058L1231.84 284.699L1154.09 49.7942L942.441 222.058Z" fill="#B3B3B3"/>
<path d="M1154.09 49.7942L1231.84 284.699L1378.69 214.228L1154.09 49.7942Z" fill="#CCCCCC"/>
<path d="M994.274 -32.4228L1154.09 49.794L1141.13 -102.894L994.274 -32.4228Z" fill="#E6E6E6"/>
<path d="M1141.13 -102.894L1154.09 49.794L1430.53 -40.2529L1141.13 -102.894Z" fill="#CCCCCC"/>
<path d="M2100.02 269.039L2048.19 523.519L2259.84 351.256L2100.02 269.039Z" fill="#CCCCCC"/>
<path d="M2259.84 351.255L2484.44 515.689L2536.28 261.208L2259.84 351.255Z" fill="#B3B3B3"/>
<path d="M2100.02 269.039L2259.84 351.255L2246.88 198.567L2100.02 269.039Z" fill="#E6E6E6"/>
<path d="M2246.88 198.567L2259.84 351.255L2536.28 261.209L2246.88 198.567Z" fill="#CCCCCC"/>
<path d="M2536.28 261.208L2484.44 515.689L2696.09 347.34L2536.28 261.208Z" fill="#CCCCCC"/>
<path d="M2696.09 347.34L2916.38 511.774L2972.53 253.378L2696.09 347.34Z" fill="#B3B3B3"/>
<path d="M2536.28 261.208L2696.09 347.34L2683.13 190.737L2536.28 261.208Z" fill="#E6E6E6"/>
<path d="M2683.13 190.737L2696.09 347.34L2972.53 253.378L2683.13 190.737Z" fill="#CCCCCC"/>
<path d="M2968.21 257.294L2916.38 511.774L3128.03 339.51L2968.21 257.294Z" fill="#CCCCCC"/>
<path d="M3128.03 339.51L3352.63 503.944L3404.46 249.463L3128.03 339.51Z" fill="#B3B3B3"/>
<path d="M2968.21 257.293L3128.02 339.51L3115.07 186.822L2968.21 257.293Z" fill="#E6E6E6"/>
<path d="M3115.07 186.822L3128.03 339.51L3404.46 249.463L3115.07 186.822Z" fill="#CCCCCC"/>
<path d="M3166.9 -67.6586L3115.07 186.822L3326.71 18.4732L3166.9 -67.6586Z" fill="#CCCCCC"/>
<path d="M3326.71 18.473L3547 178.991L3598.83 -75.489L3326.71 18.473Z" fill="#B3B3B3"/>
<path d="M3115.07 186.822L3400.14 249.463L3326.71 18.4732L3115.07 186.822Z" fill="#B3B3B3"/>
<path d="M3326.71 18.4732L3400.14 249.463L3547 178.992L3326.71 18.4732Z" fill="#CCCCCC"/>
<path d="M3166.9 -67.6586L3326.71 18.4732L3313.76 -138.13L3166.9 -67.6586Z" fill="#E6E6E6"/>
<path d="M3313.76 -138.13L3326.71 18.4732L3598.83 -75.4888L3313.76 -138.13Z" fill="#CCCCCC"/>
<path d="M3598.83 -75.489L3547 178.991L3758.65 10.6429L3598.83 -75.489Z" fill="#CCCCCC"/>
<path d="M3758.65 10.643L3983.25 175.076L4035.09 -79.4039L3758.65 10.643Z" fill="#B3B3B3"/>
<path d="M3547 178.992L3836.4 241.633L3758.65 10.6433L3547 178.992Z" fill="#B3B3B3"/>
<path d="M3758.65 10.6433L3836.4 241.633L3983.25 175.077L3758.65 10.6433Z" fill="#CCCCCC"/>
<path d="M3598.83 -75.4886L3758.65 10.6432L3745.69 -145.96L3598.83 -75.4886Z" fill="#E6E6E6"/>
<path d="M3745.69 -145.96L3758.65 10.6432L4035.09 -79.4037L3745.69 -145.96Z" fill="#CCCCCC"/>
<path d="M1430.53 -44.1679L1378.69 210.312L1590.34 41.9639L1430.53 -44.1679Z" fill="#CCCCCC"/>
<path d="M1590.34 41.964L1814.95 206.397L1866.78 -48.0829L1590.34 41.964Z" fill="#B3B3B3"/>
<path d="M1378.69 210.312L1668.09 276.869L1590.34 41.9639L1378.69 210.312Z" fill="#B3B3B3"/>
<path d="M1590.34 41.9639L1668.09 276.869L1814.95 206.397L1590.34 41.9639Z" fill="#CCCCCC"/>
<path d="M1430.53 -44.168L1590.34 41.9638L1577.38 -114.64L1430.53 -44.168Z" fill="#E6E6E6"/>
<path d="M1577.38 -114.64L1590.34 41.9638L1866.78 -48.0831L1577.38 -114.64Z" fill="#CCCCCC"/>
<path d="M1862.46 -51.9983L1810.63 206.397L2022.27 34.1335L1862.46 -51.9983Z" fill="#CCCCCC"/>
<path d="M2022.27 34.1336L2246.88 198.567L2298.71 -55.9133L2022.27 34.1336Z" fill="#B3B3B3"/>
<path d="M1810.63 206.397L2100.02 269.039L2022.27 34.1336L1810.63 206.397Z" fill="#B3B3B3"/>
<path d="M2022.27 34.1336L2100.02 269.039L2246.88 198.567L2022.27 34.1336Z" fill="#CCCCCC"/>
<path d="M1862.46 -51.9981L2022.27 34.1337L2009.32 -118.554L1862.46 -51.9981Z" fill="#E6E6E6"/>
<path d="M2009.32 -118.554L2022.28 34.1337L2298.71 -55.9132L2009.32 -118.554Z" fill="#CCCCCC"/>
<path d="M2298.71 -55.9133L2246.88 198.567L2454.21 30.2185L2298.71 -55.9133Z" fill="#CCCCCC"/>
<path d="M2454.21 30.2184L2678.81 194.652L2730.65 -63.7436L2454.21 30.2184Z" fill="#B3B3B3"/>
<path d="M2246.88 198.567L2531.96 261.208L2454.21 30.2185L2246.88 198.567Z" fill="#B3B3B3"/>
<path d="M2454.21 30.2185L2531.96 261.208L2678.81 194.652L2454.21 30.2185Z" fill="#CCCCCC"/>
<path d="M2298.71 -55.9134L2454.21 30.2184L2445.57 -126.385L2298.71 -55.9134Z" fill="#E6E6E6"/>
<path d="M2445.57 -126.385L2454.21 30.2184L2730.65 -63.7435L2445.57 -126.385Z" fill="#CCCCCC"/>
<path d="M2730.65 -63.7436L2678.81 194.652L2890.46 22.3882L2730.65 -63.7436Z" fill="#CCCCCC"/>
<path d="M2890.46 22.3883L3115.07 186.822L3166.9 -67.6586L2890.46 22.3883Z" fill="#B3B3B3"/>
<path d="M2678.81 194.652L2968.21 257.293L2890.46 22.3883L2678.81 194.652Z" fill="#B3B3B3"/>
<path d="M2890.46 22.3883L2968.21 257.293L3115.07 186.822L2890.46 22.3883Z" fill="#CCCCCC"/>
<path d="M2730.65 -63.7434L2890.46 22.3885L2877.5 -130.3L2730.65 -63.7434Z" fill="#E6E6E6"/>
<path d="M2877.5 -130.3L2890.46 22.3885L3166.9 -67.6584L2877.5 -130.3Z" fill="#CCCCCC"/>
<path d="M1231.84 280.784L1180 535.264L1391.65 366.916L1231.84 280.784Z" fill="#CCCCCC"/>
<path d="M1391.65 366.916L1616.26 527.434L1668.09 272.954L1391.65 366.916Z" fill="#B3B3B3"/>
<path d="M1231.84 280.784L1391.65 366.916L1378.69 210.313L1231.84 280.784Z" fill="#E6E6E6"/>
<path d="M1378.69 210.313L1391.65 366.916L1668.09 272.954L1378.69 210.313Z" fill="#CCCCCC"/>
<path d="M1668.09 269.039L1616.26 523.519L1827.9 355.171L1668.09 269.039Z" fill="#CCCCCC"/>
<path d="M1827.9 355.17L2052.51 519.604L2104.34 265.123L1827.9 355.17Z" fill="#B3B3B3"/>
<path d="M1668.09 269.039L1827.9 355.171L1814.95 198.567L1668.09 269.039Z" fill="#E6E6E6"/>
<path d="M1814.95 198.567L1827.9 355.171L2104.34 265.124L1814.95 198.567Z" fill="#CCCCCC"/>
<path d="M4264.01 237.718L4212.18 492.198L4423.83 323.85L4264.01 237.718Z" fill="#CCCCCC"/>
<path d="M4423.83 323.85L4644.11 484.368L4700.26 229.888L4423.83 323.85Z" fill="#B3B3B3"/>
<path d="M4264.01 237.718L4423.82 323.85L4410.87 167.246L4264.01 237.718Z" fill="#E6E6E6"/>
<path d="M4410.87 167.246L4423.83 323.85L4700.26 229.888L4410.87 167.246Z" fill="#CCCCCC"/>
<path d="M4026.45 -79.4039L3974.61 175.076L4186.26 6.72793L4026.45 -79.4039Z" fill="#CCCCCC"/>
<path d="M4186.26 6.72815L4406.55 171.162L4462.7 -87.2338L4186.26 6.72815Z" fill="#B3B3B3"/>
<path d="M3974.61 175.077L4259.69 237.718L4186.26 6.72794L3974.61 175.077Z" fill="#B3B3B3"/>
<path d="M4186.26 6.72794L4259.69 237.718L4406.55 171.161L4186.26 6.72794Z" fill="#CCCCCC"/>
<path d="M4026.45 -79.404L4186.26 6.72784L4173.3 -149.875L4026.45 -79.404Z" fill="#E6E6E6"/>
<path d="M4173.3 -149.875L4186.26 6.72784L4462.7 -87.2341L4173.3 -149.875Z" fill="#CCCCCC"/>
<path d="M4458.38 -87.2338L4406.55 171.162L4618.2 -1.10201L4458.38 -87.2338Z" fill="#CCCCCC"/>
<path d="M4618.2 -1.10198L4842.8 163.331L4894.63 -91.1489L4618.2 -1.10198Z" fill="#B3B3B3"/>
<path d="M4406.55 171.161L4695.94 233.803L4618.2 -1.10236L4406.55 171.161Z" fill="#B3B3B3"/>
<path d="M4618.2 -1.10236L4695.94 233.803L4842.8 163.331L4618.2 -1.10236Z" fill="#CCCCCC"/>
<path d="M3395.82 249.463L3343.99 503.944L3555.64 335.595L3395.82 249.463Z" fill="#CCCCCC"/>
<path d="M3555.64 335.595L3780.24 500.028L3832.08 241.633L3555.64 335.595Z" fill="#B3B3B3"/>
<path d="M3395.82 249.463L3555.64 335.595L3542.68 178.992L3395.82 249.463Z" fill="#E6E6E6"/>
<path d="M3542.68 178.992L3555.64 335.595L3832.08 241.633L3542.68 178.992Z" fill="#CCCCCC"/>
<path d="M3827.76 241.633L3775.93 500.028L3987.57 327.765L3827.76 241.633Z" fill="#CCCCCC"/>
<path d="M3987.57 327.765L4212.18 492.198L4264.01 237.718L3987.57 327.765Z" fill="#B3B3B3"/>
<path d="M3827.76 241.633L3987.57 327.765L3974.61 175.077L3827.76 241.633Z" fill="#E6E6E6"/>
<path d="M3974.61 175.077L3987.57 327.765L4264.01 237.718L3974.61 175.077Z" fill="#CCCCCC"/>
<path d="M-371 -369H5762V797H-371V-369Z" fill="url(#paint0_linear_6_1167)" fill-opacity="0.8"/>
</g>
<defs>
<linearGradient id="paint0_linear_6_1167" x1="-169.662" y1="137.852" x2="5963.34" y2="137.852" gradientUnits="userSpaceOnUse">
<stop stop-color="#CC2131"/>
<stop offset="0.541667" stop-color="#004A8D"/>
<stop offset="1" stop-color="#57A88E"/>
</linearGradient>
<clipPath id="clip0_6_1167">
<rect width="4661" height="321" fill="white"/>
</clipPath>
</defs>
</svg>
